<?xml version="1.0" encoding="UTF-8" standalone="no"?>
<!DOCTYPE svg PUBLIC "-//W3C//DTD SVG 1.1//EN" "http://www.w3.org/Graphics/SVG/1.1/DTD/svg11.dtd">
<svg width="100%" height="100%" viewBox="0 0 1568 1336" version="1.1" xmlns="http://www.w3.org/2000/svg" xmlns:xlink="http://www.w3.org/1999/xlink" xml:space="preserve" xmlns:serif="http://www.serif.com/" style="fill-rule:evenodd;clip-rule:evenodd;stroke-linejoin:round;stroke-miterlimit:2;">
    <g transform="matrix(1.225,0,0,1.67,0,0)">
        <rect id="Mesa-de-trabajo1" serif:id="Mesa de trabajo1" x="0" y="0" width="1280" height="800" style="fill:none;"/>
        <g id="Mesa-de-trabajo11" serif:id="Mesa de trabajo1">
            <g transform="matrix(3.31421,0,0,2.43109,-29.3876,-409.44)">
                <path d="M296.22,426.79C298.01,426.91 299.57,427.69 300.94,428.83C295.29,431.84 289.87,435.43 284.49,438.88C280.16,441.65 275.69,444.41 271.06,446.74L271.06,446.73C272.06,443.86 272.48,440.77 273.85,438.06C275.29,435.21 277.76,432.91 280.7,431.68C282.73,430.84 284.94,430.5 287,429.74C290.07,428.62 292.97,426.57 296.22,426.79Z" style="fill:rgb(94,74,56);fill-rule:nonzero;"/>
                <path d="M342.16,406.79C340.45,405.25 338.56,403.17 339.2,400.96C339.41,400.2 339.88,399.6 340.48,399.12C342.53,399.39 344.57,399.77 346.59,400.26C353.61,401.96 360.63,405.15 364.93,410.95C366.43,412.96 367.59,415.51 366.93,417.93C366.48,419.57 365.25,420.89 363.85,421.84C358.97,425.12 352.51,424.18 346.71,423.22C343.81,422.73 340.89,422.27 337.96,421.93C337.97,421.75 338,421.57 338.03,421.39C338.42,419.35 339.84,417.6 341.62,416.53C341.98,416.31 342.38,416.09 342.55,415.7C342.88,414.9 342.02,414.16 341.4,413.55C340.44,412.61 339.86,411.26 339.97,409.92C340.08,408.58 340.92,407.3 342.16,406.79Z" style="fill:rgb(94,74,56);fill-rule:nonzero;"/>
                <path d="M339.2,400.96C338.56,403.17 340.45,405.25 342.16,406.79C340.92,407.3 340.08,408.58 339.97,409.92C339.86,411.26 340.44,412.61 341.4,413.55C342.02,414.16 342.88,414.9 342.55,415.7C342.38,416.09 341.98,416.31 341.62,416.53C339.84,417.6 338.42,419.35 338.03,421.39C338,421.57 337.97,421.75 337.96,421.93C331.89,421.21 325.78,420.97 319.77,421.97C313.11,423.07 306.9,425.63 300.94,428.83C299.57,427.69 298.01,426.91 296.22,426.79C292.97,426.57 290.07,428.62 287,429.74C284.94,430.5 282.73,430.84 280.7,431.68C277.76,432.91 275.29,435.21 273.85,438.06C272.48,440.77 272.06,443.86 271.06,446.73L271.06,446.74C263.87,450.38 256.31,453.02 248.32,453.22C243.11,453.35 237.92,452.43 232.91,451.01C225.13,448.8 217.41,445.17 212.37,438.85C211.65,437.94 210.97,436.94 210.8,435.79C210.64,434.75 210.91,433.71 211.22,432.7C213.55,424.91 217.61,417.65 221.71,412.14C232.77,421.14 247.73,425.16 261.799,422.92C281.42,419.79 297.58,405.58 316.79,400.54C324.49,398.52 332.59,398.05 340.48,399.12C339.88,399.6 339.41,400.2 339.2,400.96Z" style="fill:rgb(238,234,230);fill-rule:nonzero;"/>
                <path d="M163.062,294.216C169.744,290.551 175.14,284.81 179.148,278.328C183.156,271.846 185.843,264.628 187.921,257.296C189.262,252.565 188.898,244.892 186.561,241.315C184.801,238.622 181.843,236.822 182.823,232.959C183.297,231.089 185.306,228.947 187.947,229.662C187.38,226.465 187.228,224.467 188.862,222.322C190.495,220.177 194.171,219.708 196.188,221.497C196.799,219.222 198.821,217.392 201.145,217.01C203.468,216.629 205.969,217.716 207.275,219.676C207.628,220.205 208.06,221.509 208.443,221.641C208.934,221.809 209.217,221.129 210.325,220.722C212.484,219.929 214.961,221.175 216.457,222.922C217.953,224.669 218.696,226.922 219.356,229.126C223.945,244.461 226.151,260.625 224.602,276.557C223.052,292.489 217.636,308.188 208.035,320.995C205.562,324.294 202.757,327.448 199.201,329.532C195.644,331.617 191.217,332.52 187.33,331.147C184.16,330.027 181.669,327.553 179.504,324.98C173.749,318.139 169.535,310.146 165.728,302.057C164.52,299.491 163.32,296.756 163.062,294.216Z" style="fill:rgb(238,234,230);fill-rule:nonzero;"/>
                <path d="M207.534,231.977C205.686,230.241 202.8,229.785 200.437,230.704C198.073,231.622 196.291,233.806 195.682,236.267C195.328,237.701 195.365,239.292 196.11,240.567C196.856,241.842 198.417,242.691 199.847,242.319C200.736,242.087 201.476,241.436 202.372,241.227C203.438,240.978 204.548,241.39 205.641,241.317C206.633,241.25 207.589,240.762 208.225,239.999C209.015,239.051 209.282,237.76 209.256,236.526C209.223,234.91 208.814,233.178 207.534,231.977Z" style="fill:rgb(248,177,179);fill-rule:nonzero;"/>
                <path d="M187.815,232.75C186.953,232.829 186.144,233.47 185.958,234.316C185.886,234.645 185.905,234.991 185.979,235.32C186.127,235.968 186.512,236.578 187.09,236.908C187.668,237.237 188.441,237.243 188.974,236.846C189.211,236.669 189.392,236.425 189.536,236.166C189.779,235.729 189.956,235.091 189.883,234.728C189.546,233.052 188.407,232.696 187.815,232.75Z" style="fill:rgb(248,177,179);fill-rule:nonzero;"/>
                <path d="M193.507,224.241C192.713,223.758 191.591,224.052 191.014,224.78C190.437,225.509 190.368,226.558 190.697,227.427C190.801,227.702 190.944,227.968 191.154,228.175C191.347,228.365 191.591,228.499 191.847,228.587C192.944,228.961 194.278,228.385 194.758,227.331C195.237,226.277 194.741,224.991 193.507,224.241Z" style="fill:rgb(248,177,179);fill-rule:nonzero;"/>
                <path d="M202.896,220.697C202.226,220.424 201.43,220.484 200.808,220.854C200.187,221.224 199.754,221.895 199.674,222.613C199.628,223.024 199.692,223.441 199.802,223.84C199.925,224.288 200.116,224.733 200.453,225.054C200.714,225.302 201.051,225.463 201.402,225.544C202.627,225.829 204.005,225.033 204.37,223.829C204.736,222.626 204.049,221.166 202.896,220.697Z" style="fill:rgb(248,177,179);fill-rule:nonzero;"/>
                <path d="M210.482,227.434C210.115,226.827 209.969,226.089 210.075,225.388C210.127,225.047 210.24,224.71 210.443,224.431C210.68,224.108 211.031,223.879 211.408,223.744C212.219,223.454 213.179,223.61 213.844,224.156C214.51,224.703 214.849,225.626 214.676,226.47C214.503,227.314 213.816,228.035 212.977,228.229C212.138,228.423 210.975,228.25 210.482,227.434Z" style="fill:rgb(248,177,179);fill-rule:nonzero;"/>
                <path d="M61.12,361.6C64.76,360.15 68.81,358.97 72.54,359.94C70.16,365.15 66.66,369.73 62.9,374.1C60.84,370.43 58.94,366.78 57.2,363.19C58.52,362.68 59.82,362.12 61.12,361.6Z" style="fill:rgb(76,60,43);fill-rule:nonzero;"/>
                <path d="M45.5,266.32C46.65,273.45 43.68,281.09 38.02,285.58C37.74,285.8 37.41,286.03 37.06,286.09C36.38,272.05 37.17,257.13 39.94,241.68C43.09,244.46 45.01,248.65 44.9,252.86C44.84,255.12 44.25,257.36 44.33,259.61C44.4,261.88 45.14,264.08 45.5,266.32Z" style="fill:rgb(147,113,79);fill-rule:nonzero;"/>
                <path d="M201.76,447.06C202.63,451.9 202.7,456.88 201.98,461.75C201.83,462.73 201.65,463.72 201.39,464.69C198.75,464.06 196,463.84 193.29,463.57C179.28,462.22 165.11,460.18 152.12,454.77C150.36,454.04 148.63,453.28 146.92,452.5C149.71,448.75 152.79,445.19 156.52,442.39C161.12,438.94 166.84,436.7 172.55,437.25C174.7,437.46 176.81,438.05 178.96,437.96C183.82,437.77 188.35,434.16 193.11,435.13C195.67,435.65 197.83,437.48 199.22,439.69C200.61,441.91 201.31,444.48 201.76,447.06Z" style="fill:rgb(147,113,79);fill-rule:nonzero;"/>
                <path d="M247.83,464.75C251.18,469.53 252.45,475.72 251.25,481.43C250.54,484.81 248.36,488.47 244.91,488.67C241.79,488.85 239.37,486.16 236.99,484.13C231.62,479.56 224.55,477.69 218.4,474.25C219.73,472.11 222.04,470.57 224.56,470.34C225.29,470.27 226.08,470.3 226.72,469.91C227.16,469.64 227.47,469.21 227.75,468.78C228.97,466.89 230.11,464.58 232.29,464.01C233.32,463.75 234.44,463.93 235.41,463.53C236.66,463.02 237.35,461.73 238.2,460.68C239.13,459.54 240.35,458.63 241.71,458.05C243.85,460.2 246.09,462.27 247.83,464.75Z" style="fill:rgb(94,74,56);fill-rule:nonzero;"/>
                <path d="M281,349.53C279.1,353.22 276.77,356.72 273.15,358.6C269.76,360.36 265.76,360.41 261.95,360.22C258.519,360.04 254.98,359.67 252,357.95C248.3,355.81 246.07,351.95 244.72,347.81C256.609,346.91 268.94,349.34 281,349.53Z" style="fill:rgb(94,74,56);fill-rule:nonzero;"/>
                <path d="M72.38,336.36C76.58,343.06 76.02,351.9 72.89,359.17C72.78,359.43 72.66,359.69 72.54,359.94C68.81,358.97 64.76,360.15 61.12,361.6C59.82,362.12 58.52,362.68 57.2,363.19C53.35,355.27 50.23,347.63 47.7,340.55C44.58,331.83 41.94,322.22 40.04,311.91C43.25,313.88 46.6,315.6 50.2,316.7C54.81,318.11 60.06,318.63 63.41,322.1C65.74,324.51 66.68,327.92 68.42,330.79C69.61,332.74 71.17,334.43 72.38,336.36Z" style="fill:rgb(94,74,56);fill-rule:nonzero;"/>
                <path d="M79.79,219.51C76.5,226.96 71.88,239.24 71.23,249.33C69.37,248.28 68.03,246.3 67.83,244.15C67.73,243.02 67.92,241.86 67.76,240.73C67.47,238.7 66.1,237 65.35,235.08C63.76,231.03 65.23,226.15 68.41,223.19C71.42,220.39 75.69,219.22 79.79,219.51Z" style="fill:rgb(94,74,56);fill-rule:nonzero;"/>
                <path d="M321.16,346.92C321.58,347.9 321.55,349 321.43,350.06C320.4,359.18 313.64,366.57 306.56,372.41C305.12,373.6 303.65,374.75 302.15,375.87C301.09,375.84 300.03,375.64 299.04,375.26C296.73,374.38 294.79,372.57 293.75,370.33C293.58,369.96 293.43,369.58 293.16,369.28C292.63,368.7 291.78,368.56 291.06,368.23C289.83,367.65 288.94,366.39 288.82,365.03C288.69,363.6 289.36,362.13 288.99,360.74C288.62,359.34 287.32,358.41 286.58,357.17C285.58,355.48 285.75,353.18 286.99,351.66C287.78,350.69 288.97,350 289.93,349.18C292.78,348.88 295.61,348.37 298.4,347.58C304.43,345.87 310.47,342.84 316.62,343.97C318.47,344.31 320.42,345.19 321.16,346.92Z" style="fill:rgb(147,113,79);fill-rule:nonzero;"/>
                <path d="M98.06,386.07C98.17,395.41 96.54,405.26 91.03,412.68C79.32,400.27 70.12,387.01 62.9,374.1C66.66,369.73 70.16,365.15 72.54,359.94C72.85,360.02 73.16,360.12 73.47,360.23C77.18,361.59 79.74,365.05 83.27,366.83C85.95,368.18 89.08,368.51 91.64,370.06C96.78,373.19 97.99,380.06 98.06,386.07Z" style="fill:rgb(147,113,79);fill-rule:nonzero;"/>
                <path d="M123.3,245.05C125.89,251.31 124.77,258.951 120.49,264.2C116.21,269.46 108.96,272.1 102.3,270.83C99.58,270.31 96.87,269.19 94.14,269.62C89.95,270.27 87.35,274.77 83.32,276.09C74.01,279.14 68.97,275.77 68.75,275.39C68.57,275.09 68.59,274.72 68.61,274.37C69.4,263.97 69.76,260.4 72.4,250.82C74.53,245.35 78.22,238.55 84.16,231.22C85.73,229.3 86.55,226.88 87.63,224.65C91.13,217.41 95.9,210.79 101.66,205.17C104.01,202.87 106.56,200.72 109.5,199.24C112.06,197.94 115.55,197.33 117.51,199.44C118.8,200.82 118.93,202.9 118.94,204.79C118.95,208.77 118.7,212.75 118.19,216.69C119.29,216.4 120.35,216.21 121.35,216.09C121.73,218.06 121.21,220.26 120.42,222.16C119.31,224.84 117.7,227.41 117.46,230.31C117.02,235.65 121.24,240.1 123.3,245.05Z" style="fill:rgb(147,113,79);fill-rule:nonzero;"/>
                <path d="M71.25,254.06C71.57,253.04 71.95,251.96 72.4,250.82C69.76,260.4 69.4,263.97 68.61,274.37C68.59,274.72 68.57,275.09 68.75,275.39C68.97,275.77 74.01,279.14 83.32,276.09C87.35,274.77 89.95,270.27 94.14,269.62C96.87,269.19 99.58,270.31 102.3,270.83C108.96,272.1 116.21,269.46 120.49,264.2C124.77,258.951 125.89,251.31 123.3,245.05C121.24,240.1 117.02,235.65 117.46,230.31C117.7,227.41 119.31,224.84 120.42,222.16C121.21,220.26 121.73,218.06 121.35,216.09C125.11,215.65 128,216.16 128.45,215.9C128.97,215.58 129.33,215.06 129.66,214.55C133.19,209.09 136.17,202.95 141.52,199.27C142.98,198.27 144.74,197.46 146.46,197.85C149.42,198.5 150.54,202.07 150.94,205.08C151.64,210.37 151.77,215.75 151.3,221.07C156.56,224.38 161.1,229.21 164.34,234.8C169.07,242.96 171.19,252.82 177.88,259.481C178.58,260.171 179.35,260.86 179.68,261.791C179.99,262.63 179.89,263.56 179.73,264.45C178.19,273.13 171.49,279.81 166.67,287.2C166.33,287.72 165.99,288.27 165.9,288.89C165.78,289.71 166.1,290.51 166.43,291.27C172.79,305.78 183.21,318.37 195.77,328.03C208.33,337.69 222.98,344.48 238.25,348.67C240.39,348.25 242.55,347.97 244.72,347.81C246.07,351.95 248.3,355.81 252,357.95C254.98,359.67 258.519,360.04 261.95,360.22C265.76,360.41 269.76,360.36 273.15,358.6C276.77,356.72 279.1,353.22 281,349.53C284,349.58 286.98,349.49 289.93,349.18C288.97,350 287.78,350.69 286.99,351.66C285.75,353.18 285.58,355.48 286.58,357.17C287.32,358.41 288.62,359.34 288.99,360.74C289.36,362.13 288.69,363.6 288.82,365.03C288.94,366.39 289.83,367.65 291.06,368.23C291.78,368.56 292.63,368.7 293.16,369.28C293.43,369.58 293.58,369.96 293.75,370.33C294.79,372.57 296.73,374.38 299.04,375.26C300.03,375.64 301.09,375.84 302.15,375.87C282.74,390.38 258.81,398.8 234.57,399.55C232.75,408.06 228.81,416.11 223.2,422.77C228.59,433.77 231.44,446.59 239.64,455.86C240.31,456.61 241.01,457.34 241.71,458.05C240.35,458.63 239.13,459.54 238.2,460.68C237.35,461.73 236.66,463.02 235.41,463.53C234.44,463.93 233.32,463.75 232.29,464.01C230.11,464.58 228.97,466.89 227.75,468.78C227.47,469.21 227.16,469.64 226.72,469.91C226.08,470.3 225.29,470.27 224.56,470.34C222.04,470.57 219.73,472.11 218.4,474.25C218.11,474.09 217.82,473.93 217.54,473.76C212.91,471.02 208.84,467.23 203.78,465.4C202.99,465.12 202.2,464.89 201.39,464.69C201.65,463.72 201.83,462.73 201.98,461.75C202.7,456.88 202.63,451.9 201.76,447.06C201.31,444.48 200.61,441.91 199.22,439.69C197.83,437.48 195.67,435.65 193.11,435.13C188.35,434.16 183.82,437.77 178.96,437.96C176.81,438.05 174.7,437.46 172.55,437.25C166.84,436.7 161.12,438.94 156.52,442.39C152.79,445.19 149.71,448.75 146.92,452.5C123.82,442.06 105.51,428.02 91.03,412.68C96.54,405.26 98.17,395.41 98.06,386.07C97.99,380.06 96.78,373.19 91.64,370.06C89.08,368.51 85.95,368.18 83.27,366.83C79.74,365.05 77.18,361.59 73.47,360.23C73.16,360.12 72.85,360.02 72.54,359.94C72.66,359.69 72.78,359.43 72.89,359.17C76.02,351.9 76.58,343.06 72.38,336.36C71.17,334.43 69.61,332.74 68.42,330.79C66.68,327.92 65.74,324.51 63.41,322.1C60.06,318.63 54.81,318.11 50.2,316.7C46.6,315.6 43.25,313.88 40.04,311.91C38.54,303.72 37.5,295.09 37.06,286.09C37.41,286.03 37.74,285.8 38.02,285.58C43.68,281.09 46.65,273.45 45.5,266.32C45.14,264.08 44.4,261.88 44.33,259.61C44.25,257.36 44.84,255.12 44.9,252.86C45.01,248.65 43.09,244.46 39.94,241.68C42.5,227.35 46.76,212.56 53.12,197.58C56.39,189.88 62.42,179.38 68.02,177.5C73.07,175.8 74.52,180.04 74.18,182.28C74.03,183.27 76.99,177.33 82.41,178.62C85.11,179.26 88.18,183.89 84.54,187.52C84.44,187.63 84.46,187.81 84.5,187.95C84.61,188.3 86.26,186.3 90.03,187.19C92.84,187.86 94.16,190.42 94.16,192.41C94.16,196.3 91.1,198.43 91.24,198.71C91.34,198.92 91.57,199.01 91.79,199.09C93.92,199.95 95.01,202.57 94.56,204.82C94.1,207.08 92.44,209.07 90.34,210.01C86.54,211.71 84.49,210.61 83.02,212.86C82.65,213.43 81.38,215.91 79.79,219.51C75.69,219.22 71.42,220.39 68.41,223.19C65.23,226.15 63.76,231.03 65.35,235.08C66.1,237 67.47,238.7 67.76,240.73C67.92,241.86 67.73,243.02 67.83,244.15C68.03,246.3 69.37,248.28 71.23,249.33C71.12,250.97 71.12,252.56 71.25,254.06Z" style="fill:rgb(238,234,230);fill-rule:nonzero;"/>
                <path d="M72.49,190.764C74.974,190.259 77.669,191.389 79.197,193.412C80.725,195.435 81.093,198.23 80.317,200.644C79.865,202.05 78.998,203.384 77.693,204.077C76.389,204.769 74.614,204.671 73.594,203.603C72.959,202.938 72.672,201.996 72.02,201.347C71.244,200.575 70.082,200.342 69.192,199.705C68.383,199.127 67.826,198.209 67.685,197.225C67.512,196.004 67.964,194.765 68.634,193.729C69.511,192.372 70.77,191.114 72.49,190.764Z" style="fill:rgb(248,177,179);fill-rule:nonzero;"/>
                <path d="M87.255,202.713C87.948,203.233 88.299,204.203 88.012,205.021C87.901,205.339 87.704,205.623 87.467,205.864C87.001,206.338 86.352,206.654 85.687,206.631C85.023,206.608 84.362,206.206 84.117,205.588C84.008,205.313 83.983,205.011 83.996,204.715C84.019,204.215 84.204,203.579 84.457,203.309C85.625,202.06 86.781,202.356 87.255,202.713Z" style="fill:rgb(248,177,179);fill-rule:nonzero;"/>
                <path d="M86.886,192.482C87.815,192.489 88.615,193.328 88.724,194.251C88.832,195.174 88.339,196.103 87.602,196.67C87.369,196.849 87.107,197 86.82,197.065C86.556,197.126 86.278,197.112 86.014,197.051C84.884,196.794 84.052,195.603 84.198,194.454C84.344,193.304 85.442,192.471 86.886,192.482Z" style="fill:rgb(248,177,179);fill-rule:nonzero;"/>
                <path d="M79.619,182.312C80.332,182.433 80.977,182.902 81.312,183.543C81.646,184.185 81.661,184.983 81.352,185.636C81.175,186.01 80.901,186.331 80.598,186.613C80.258,186.929 79.861,187.207 79.407,187.303C79.054,187.377 78.683,187.337 78.341,187.222C77.149,186.819 76.396,185.419 76.717,184.202C77.039,182.986 78.391,182.105 79.619,182.312Z" style="fill:rgb(248,177,179);fill-rule:nonzero;"/>
                <path d="M69.24,186.03C69.871,185.706 70.383,185.156 70.661,184.503C70.796,184.185 70.878,183.84 70.851,183.496C70.819,183.096 70.642,182.717 70.392,182.404C69.854,181.731 68.956,181.359 68.102,181.474C67.249,181.589 66.475,182.196 66.179,183.005C65.883,183.814 66.088,184.789 66.7,185.395C67.311,186.001 68.392,186.465 69.24,186.03Z" style="fill:rgb(248,177,179);fill-rule:nonzero;"/>
                <path d="M114.035,217.112C114.227,214.197 114.215,211.269 113.999,208.357C113.906,207.094 113.696,205.687 112.692,204.916C111.862,204.28 110.678,204.273 109.701,204.647C108.724,205.021 107.911,205.72 107.138,206.425C102.092,211.033 98.984,217.203 96.074,224.632C104.285,220.332 111.8,217.39 114.035,217.112Z" style="fill:rgb(248,177,179);fill-rule:nonzero;"/>
                <path d="M133.286,217.696C134.883,214.126 136.904,210.746 139.293,207.651C140.114,206.587 140.994,205.542 142.105,204.785C142.573,204.467 143.116,204.194 143.68,204.248C144.812,204.356 145.397,205.642 145.644,206.753C146.04,208.534 146.158,210.363 146.275,212.183C146.462,215.092 146.649,218.002 146.836,220.911C142.687,219.054 138.251,217.839 133.286,217.696Z" style="fill:rgb(248,177,179);fill-rule:nonzero;"/>
                <path d="M110.207,260.008C110.207,258.511 111.339,257.296 112.735,257.296C114.131,257.296 115.263,258.511 115.263,260.008C115.263,261.507 114.131,262.721 112.735,262.721C111.339,262.721 110.207,261.507 110.207,260.008Z" style="fill:rgb(3,4,4);fill-rule:nonzero;"/>
                <path d="M141.342,253.966C141.342,252.468 142.473,251.253 143.87,251.253C145.266,251.253 146.397,252.468 146.397,253.966C146.397,255.464 145.266,256.679 143.87,256.679C142.473,256.679 141.342,255.464 141.342,253.966Z" style="fill:rgb(3,4,4);fill-rule:nonzero;"/>
                <path d="M127.575,232.035C127.004,231.768 126.631,231.551 126.234,231.113C126.015,230.853 125.789,230.212 125.962,230.027C125.94,230.035 126.14,229.849 126.318,229.807L126.342,229.801C126.549,229.789 126.655,229.839 126.908,229.921C127.575,230.161 128.248,230.553 128.601,231.227C128.794,231.597 128.845,231.992 128.868,232.393C128.311,232.321 127.663,232.093 127.575,232.035ZM132.749,227.092C131.799,225.678 129.875,225.219 128.27,225.274C127.97,225.379 127.95,225.826 128.223,225.976C128.435,226.058 128.634,226.057 128.789,226.092C129.685,226.235 130.542,226.462 131.287,226.981C132.488,227.808 132.65,229.823 131.782,231.045C131.269,231.729 130.479,232.14 129.741,232.325C129.731,232.218 129.718,232.111 129.703,232.007C129.514,230.331 128.14,228.965 126.477,228.737C125.322,228.665 124.473,229.773 124.887,230.869C125.264,232.133 126.519,232.839 127.698,233.231C128.05,233.365 128.414,233.438 128.779,233.46C128.629,234.195 128.293,234.858 127.66,235.133C126.476,235.619 124.866,235.139 124.073,234.428C123.422,233.95 123.323,233.313 122.853,232.709C122.483,232.385 121.871,232.8 122.021,233.266C122.703,235.657 125.475,237.445 127.879,236.411C129.048,235.866 129.608,234.653 129.733,233.402C130.462,233.273 131.163,232.961 131.758,232.511C133.463,231.343 133.772,228.808 132.749,227.092Z" style="fill:rgb(94,74,56);fill-rule:nonzero;"/>
                <path d="M178.332,407.022C178.228,406.804 178.119,406.588 177.998,406.378L178.078,406.568C177.761,405.916 177.264,405.362 176.789,404.816C172.151,400.184 164.875,403.137 160.39,406.537C160.074,406.752 159.764,406.979 159.458,407.212C158.546,407.835 157.684,408.536 156.892,409.322C155.816,410.49 154.856,411.753 154.184,413.192C153.944,413.59 153.809,414.054 153.658,414.499C153.453,415.025 153.279,415.564 153.145,416.119C153.082,416.507 152.967,416.906 152.938,417.303C152.895,417.589 152.882,417.875 152.891,418.162C152.812,419.354 152.904,420.554 153.221,421.723C154.009,424.003 155.318,426.227 157.387,427.552C159.52,428.93 161.034,428.885 162.242,428.905C164.409,428.688 166.909,427.858 167.56,427.914C168.259,427.774 169.054,427.834 169.763,427.68C171.015,427.579 172.275,427.42 173.476,427.042C175.755,426.221 178.069,425.091 179.409,422.982C182.432,418.218 182.208,411.241 178.332,407.022Z" style="fill:rgb(94,74,56);fill-rule:nonzero;"/>
                <path d="M226.158,430.85C225.914,429.124 225.604,427.39 225.021,425.744C224.378,424.163 223.589,422.638 222.567,421.267C222.405,421.034 222.163,420.659 222.219,420.809C221.982,420.345 221.258,419.254 221.367,419.519C221.134,419 220.725,418.582 220.397,418.116C218.806,416.266 217.079,414.325 214.678,412.205L214.656,412.175C212.504,410.423 208.979,408.295 205.062,406.303C202.272,404.859 199.306,403.738 196.633,402.077L196.452,401.956C195.71,401.348 195.045,400.489 194.009,400.502C193.703,400.486 193.425,400.547 193.172,400.66C192.967,400.678 192.766,400.784 192.624,401.019L192.611,401.041C192.176,401.438 191.86,401.998 191.68,402.552L191.679,402.558C190.981,403.661 190.349,404.64 189.688,406.019C188.701,407.889 187.93,411.985 187.988,412.844C187.773,417.165 187.832,419.922 190.07,423.349C191.382,425.494 193.386,427.039 195.527,428.294C197.86,429.757 200.418,430.942 203.408,433.037C204.531,433.729 205.809,435.119 207.558,436.711C209.104,437.991 210.977,438.948 212.983,439.198C215.935,439.745 218.883,438.925 221.643,437.916C223.541,437.192 224.192,436.896 225.125,435.656C225.293,435.41 225.493,435.144 225.61,434.857C225.67,434.764 225.725,434.67 225.777,434.573C226.402,433.43 226.366,432.099 226.158,430.85Z" style="fill:rgb(147,113,79);fill-rule:nonzero;"/>
                <path d="M242.634,482.023C243.227,483.537 243.531,485.166 243.531,486.793C243.531,487.417 243.486,488.04 243.396,488.657L244.386,488.801C244.483,488.136 244.53,487.464 244.53,486.793C244.53,485.042 244.205,483.291 243.565,481.658L242.634,482.023Z" style="fill:rgb(3,4,4);fill-rule:nonzero;"/>
                <path d="M246.232,480.918C247.476,482.132 248.193,483.891 248.192,485.635C248.192,485.986 248.163,486.336 248.104,486.682L249.09,486.849C249.159,486.447 249.192,486.041 249.192,485.635C249.19,483.621 248.378,481.621 246.931,480.203L246.232,480.918Z" style="fill:rgb(3,4,4);fill-rule:nonzero;"/>
                <path d="M310.728,356.065C311.153,356.017 311.581,355.993 312.01,355.993C314.516,355.993 317.029,356.807 319.041,358.297L319.636,357.493C317.444,355.872 314.731,354.994 312.01,354.993C311.544,354.993 311.079,355.019 310.615,355.072L310.728,356.065Z" style="fill:rgb(3,4,4);fill-rule:nonzero;"/>
                <path d="M311.838,350.098C313.032,349.602 314.326,349.358 315.625,349.358C317.748,349.358 319.877,350.011 321.582,351.257L322.172,350.45C320.28,349.07 317.951,348.359 315.625,348.358C314.201,348.358 312.777,348.625 311.454,349.175L311.838,350.098Z" style="fill:rgb(3,4,4);fill-rule:nonzero;"/>
                <path d="M312.059,413.2C311.938,412.628 311.666,412.091 311.242,411.66C310.012,410.386 308.02,410.229 306.511,411.093C305.777,411.515 305.169,412.139 304.411,412.519C303.31,412.89 302.111,413.087 301.241,413.923C301.103,414.04 300.988,414.18 300.879,414.325C300.836,414.377 300.767,414.468 300.693,414.572L300.662,414.613L300.68,414.591C300.616,414.681 300.551,414.779 300.498,414.871C300.308,415.299 300.1,415.731 300.073,416.206C299.796,417.977 301.039,419.602 302.451,420.53C304.318,421.568 306.686,421.249 308.543,420.339C310.272,419.415 311.738,417.83 312.41,415.979C312.677,415.084 312.538,413.977 312.059,413.2Z" style="fill:rgb(147,113,79);fill-rule:nonzero;"/>
                <path d="M209.787,263.334C209.388,263.172 208.873,263.211 208.427,263.125C202.133,262.411 195.784,262.306 189.455,262.232C183.815,262.157 178.173,262.059 172.536,262.304C168.285,262.448 164.041,262.751 159.803,263.101C158.959,263.168 158.116,263.24 157.273,263.315C157.181,263.315 157.093,263.352 157.028,263.417C156.819,263.62 156.968,264.019 157.273,264.009C167.067,263.087 176.905,262.614 186.743,262.837C193.995,262.844 201.244,263.058 208.476,263.603C208.889,263.614 209.312,263.71 209.719,263.677C209.855,263.63 209.893,263.431 209.787,263.334Z" style="fill:rgb(3,4,4);fill-rule:nonzero;"/>
                <path d="M199.804,271.206C190.408,268.439 180.573,267.64 170.859,266.735C166.999,266.464 163.124,266.298 159.254,266.346C158.817,266.406 158.293,266.256 157.914,266.498C157.673,266.731 157.848,267.183 158.194,267.172C165.261,267.035 172.297,267.839 179.309,268.612C186.385,269.328 192.557,270.14 199.684,271.691C200.078,271.738 200.486,271.951 200.873,271.895C201.364,271.435 200.057,271.348 199.804,271.206Z" style="fill:rgb(3,4,4);fill-rule:nonzero;"/>
                <path d="M131.037,263.671C131.302,265.048 131.435,266.451 131.435,267.853L131.435,268.037C131.432,268.313 131.654,268.539 131.931,268.541C132.207,268.543 132.432,268.321 132.435,268.045L132.435,267.853C132.435,266.387 132.296,264.922 132.02,263.483C131.967,263.211 131.705,263.034 131.434,263.086C131.163,263.138 130.985,263.4 131.037,263.671Z" style="fill:rgb(94,74,56);fill-rule:nonzero;"/>
                <path d="M149.83,262.72C154.2,267.82 147.26,274.78 143.47,277.42C141.53,275.96 139.01,275.37 136.56,275.08C134.55,274.84 132.48,274.76 130.509,275.22C127.54,275.92 125.02,277.79 122.79,279.9C119.85,278.68 117.22,276.73 115.34,274.17C114.52,273.05 113.82,271.76 113.75,270.37C113.64,268.11 115.44,265.91 117.69,265.58C119.37,265.34 120.95,266.02 122.54,266.72C122.75,268.69 123.28,270.68 124.59,272.14C124.84,272.43 125.13,272.7 125.46,272.89C125.65,273 125.88,273.08 126.06,272.97C126.21,272.88 126.26,272.69 126.3,272.51C126.61,271.07 126.92,269.63 127.23,268.18C128.69,268.34 130.179,268.23 131.62,267.92C133.84,267.45 135.95,266.52 137.94,265.43C138.31,265.23 138.81,264.91 139.4,264.53C140.4,265.71 141.39,266.87 142.38,268.04C142.57,268.26 142.78,268.49 143.07,268.52C143.32,268.55 143.55,268.41 143.73,268.23C144.04,267.9 144.2,267.46 144.34,267.03C144.85,265.34 144.98,263.53 144.72,261.78C146.63,261.18 148.52,261.19 149.83,262.72Z" style="fill:rgb(25,20,21);fill-rule:nonzero;"/>
                <path d="M126.3,272.51C126.26,272.69 126.21,272.88 126.06,272.97C125.88,273.08 125.65,273 125.46,272.89C125.13,272.7 124.84,272.43 124.59,272.14C123.28,270.68 122.75,268.69 122.54,266.72C123.31,267.07 124.09,267.43 124.88,267.69C125.64,267.94 126.43,268.11 127.23,268.18C126.92,269.63 126.61,271.07 126.3,272.51Z" style="fill:white;fill-rule:nonzero;"/>
                <path d="M144.72,261.78C144.98,263.53 144.85,265.34 144.34,267.03C144.2,267.46 144.04,267.9 143.73,268.23C143.55,268.41 143.32,268.55 143.07,268.52C142.78,268.49 142.57,268.26 142.38,268.04C141.39,266.87 140.4,265.71 139.4,264.53C140.83,263.62 142.79,262.39 144.72,261.78Z" style="fill:white;fill-rule:nonzero;"/>
                <path d="M143.47,277.42C143.16,277.64 142.86,277.82 142.6,277.98C138.28,280.54 133.14,281.81 128.149,281.27C126.31,281.07 124.49,280.61 122.79,279.9C125.02,277.79 127.54,275.92 130.509,275.22C132.48,274.76 134.55,274.84 136.56,275.08C139.01,275.37 141.53,275.96 143.47,277.42Z" style="fill:rgb(248,177,179);fill-rule:nonzero;"/>
                <path d="M184.389,393.808C187.468,395.965 190.701,397.92 194.04,399.623C197.391,401.423 201.011,402.593 204.331,404.473C212.595,409.177 220.651,415.379 225.165,424.014C227.68,429.168 229.479,434.601 231.685,439.848C234.503,446.827 237.783,453.678 242.915,459.194C243.136,459.402 242.816,459.796 242.567,459.587C239.501,457.236 237.128,454.09 235.142,450.817C230.143,442.682 227.365,433.472 223.432,424.865C219.268,416.547 211.8,410.15 203.641,405.76C200.308,403.973 196.636,402.82 193.351,400.916C190.008,399.032 186.809,396.895 184.006,394.256C183.887,394.144 183.881,393.957 183.993,393.839C184.099,393.727 184.271,393.716 184.389,393.808Z" style="fill:rgb(83,64,48);fill-rule:nonzero;"/>
                <path d="M225.988,353.888C232.403,364.366 236.121,376.561 236.152,388.885C236.176,399.73 232.483,410.261 227.486,419.778C226.908,420.804 226.285,421.819 225.573,422.771C225.108,423.412 224.213,424.65 223.309,423.779C222.893,423.367 222.927,422.692 223.362,422.308C225.241,420.12 226.526,417.405 227.769,414.799C231.548,406.668 234.471,397.932 234.449,388.869C234.568,376.864 231.138,364.805 225.242,354.37C225.103,354.16 225.168,353.869 225.386,353.742C225.594,353.62 225.861,353.686 225.988,353.888Z" style="fill:rgb(83,64,48);fill-rule:nonzero;"/>
                <path d="M72.805,250.918C69.676,262.296 70.043,274.191 68.083,285.777C67.909,286.196 68.275,287.067 68.702,287.744C69.599,289.164 70.839,290.442 72.164,291.582C77.602,296.102 84.294,298.949 91.093,300.789C98.007,302.574 105.194,303.142 112.338,302.88C112.589,302.87 112.8,303.066 112.81,303.317C112.819,303.555 112.64,303.758 112.407,303.786C105.195,304.61 97.777,304.334 90.639,302.608C81.855,300.454 72.724,296.214 67.469,288.478C67.095,287.821 66.752,287.098 66.658,286.304C66.657,285.143 67.135,284.072 67.185,282.818C68.294,272.092 68.266,260.917 72.25,250.719C72.386,250.395 72.917,250.56 72.805,250.918Z" style="fill:rgb(94,74,56);fill-rule:nonzero;"/>
                <path d="M106.601,273.584C96.931,276.244 87.471,279.592 78.212,283.44C73.104,285.604 67.844,287.487 62.992,290.198C62.85,290.296 62.649,290.338 62.596,290.519C62.554,290.662 62.646,290.825 62.791,290.862C63.205,290.843 63.565,290.479 63.949,290.323C68.107,288.091 72.184,286.583 76.475,284.773C82.179,282.442 87.898,280.127 93.732,278.139C97.856,276.768 102.017,275.503 106.19,274.287C106.432,274.189 106.76,274.227 106.928,274.008C107.054,273.799 106.846,273.508 106.601,273.584Z" style="fill:rgb(3,4,4);fill-rule:nonzero;"/>
                <path d="M107.803,277.292C103.253,279.918 98.417,282.009 93.878,284.655C87.027,288.609 80.437,293.032 74.17,297.858C73.913,298.084 73.592,298.264 73.372,298.515L73.43,298.573C73.757,298.362 74.056,298.093 74.376,297.866C81.141,292.872 88.164,288.193 95.524,284.121C99.64,281.873 103.941,279.981 108.017,277.658C108.244,277.53 108.047,277.145 107.803,277.292Z" style="fill:rgb(3,4,4);fill-rule:nonzero;"/>
                <path d="M133.882,260.119C133.591,259.807 133.095,259.774 132.69,259.908C132.285,260.041 131.942,260.311 131.587,260.548C131.233,260.787 130.836,261 130.41,260.998C130.058,260.994 129.726,260.843 129.39,260.74C129.054,260.636 128.669,260.58 128.364,260.757C128.199,260.852 128.074,261.007 127.991,261.179C127.743,261.692 127.876,262.329 128.207,262.794C128.537,263.258 129.035,263.575 129.548,263.826C130.095,264.093 130.703,264.301 131.306,264.211C131.705,264.151 132.074,263.964 132.411,263.741C132.798,263.485 133.153,263.179 133.462,262.833C133.808,262.447 134.104,261.999 134.217,261.494C134.331,260.987 134.2,260.458 133.882,260.119Z" style="fill:rgb(245,149,154);fill-rule:nonzero;"/>
                <path d="M179.36,262.63C177.532,268.438 174.823,273.911 171.4,278.943C167.954,284.009 163.737,288.322 159.064,292.255C158.531,292.704 159.247,293.651 159.816,293.231C169.806,285.85 177.073,274.806 180.671,262.992C180.927,262.152 179.622,261.798 179.36,262.63Z" style="fill:rgb(94,74,56);fill-rule:nonzero;"/>
                <path d="M163.251,291.458C162.807,292.16 162.317,292.829 161.774,293.458C161.501,293.773 161.217,294.079 160.922,294.374C160.618,294.679 160.341,295.005 160.046,295.319C159.869,295.508 159.859,295.811 160.046,295.998C160.248,296.2 160.521,296.159 160.726,295.998C161.067,295.731 161.398,295.462 161.687,295.139C161.995,294.794 162.287,294.437 162.569,294.071C163.099,293.382 163.576,292.655 164,291.896C164.272,291.406 163.549,290.987 163.251,291.458Z" style="fill:rgb(94,74,56);fill-rule:nonzero;"/>
                <path d="M46.782,230.431C46.337,231.092 45.93,231.777 45.566,232.484C45.387,232.832 45.218,233.185 45.06,233.543C44.973,233.739 44.876,233.937 44.806,234.139C44.74,234.328 44.709,234.532 44.669,234.728C44.586,235.126 45.142,235.409 45.354,235.017C45.449,234.842 45.557,234.672 45.64,234.491C45.73,234.296 45.8,234.089 45.883,233.89C46.024,233.553 46.177,233.22 46.338,232.892C46.682,232.188 47.067,231.505 47.49,230.845C47.777,230.397 47.074,229.996 46.782,230.431Z" style="fill:rgb(94,74,56);fill-rule:nonzero;"/>
                <path d="M47.69,233.33C47.364,234.954 46.978,236.579 46.724,238.216C46.654,238.666 47.315,238.874 47.425,238.409C47.806,236.797 48.059,235.145 48.368,233.517C48.452,233.076 47.779,232.885 47.69,233.33Z" style="fill:rgb(94,74,56);fill-rule:nonzero;"/>
                <path d="M82.147,360.252C82.085,360.141 82.03,360.02 81.953,359.919C81.873,359.816 81.782,359.721 81.696,359.623L81.224,359.091C80.909,358.737 80.594,358.382 80.279,358.027C80.132,357.862 79.83,357.866 79.683,358.027C79.518,358.206 79.529,358.444 79.683,358.624C79.991,358.985 80.3,359.346 80.608,359.707C80.758,359.882 80.907,360.058 81.057,360.233L81.289,360.503C81.392,360.601 81.521,360.68 81.634,360.765C81.76,360.86 81.986,360.818 82.088,360.707C82.203,360.582 82.231,360.403 82.147,360.252Z" style="fill:rgb(94,74,56);fill-rule:nonzero;"/>
                <path d="M84.751,358.203C84.137,357.804 83.522,357.406 82.907,357.007C82.588,356.799 82.09,356.931 81.913,357.267C81.724,357.626 81.831,358.044 82.174,358.261C82.792,358.654 83.411,359.046 84.03,359.438C84.346,359.638 84.832,359.514 85.008,359.182C85.196,358.826 85.087,358.421 84.751,358.203Z" style="fill:rgb(94,74,56);fill-rule:nonzero;"/>
                <path d="M83.243,353.495C82.796,353.229 82.331,352.995 81.872,352.751C81.651,352.633 81.34,352.687 81.215,352.923C81.156,353.035 81.127,353.17 81.167,353.293C81.203,353.405 81.276,353.531 81.387,353.58C81.898,353.806 82.406,354.043 82.927,354.244L83.243,354.203L83.41,354.007C83.489,353.82 83.42,353.6 83.243,353.495Z" style="fill:rgb(94,74,56);fill-rule:nonzero;"/>
                <path d="M215.777,300.796C215.515,301.75 215.252,302.704 214.989,303.658C214.86,304.125 214.722,304.591 214.606,305.062C214.479,305.581 214.406,306.083 214.364,306.616C214.317,307.209 215.241,307.46 215.499,306.923C215.721,306.461 215.907,306.011 216.053,305.519C216.196,305.036 216.316,304.546 216.444,304.059C216.696,303.102 216.949,302.145 217.201,301.189C217.444,300.269 216.03,299.879 215.777,300.796Z" style="fill:rgb(94,74,56);fill-rule:nonzero;"/>
                <path d="M213.213,302.331C212.767,303.075 212.355,303.838 211.98,304.62C211.593,305.426 211.237,306.253 211.06,307.134C211.004,307.414 211.116,307.701 211.393,307.812C211.644,307.913 211.977,307.836 212.11,307.577C212.497,306.819 212.794,306.022 213.128,305.241C213.463,304.455 213.839,303.686 214.245,302.934C214.611,302.258 213.61,301.669 213.213,302.331Z" style="fill:rgb(94,74,56);fill-rule:nonzero;"/>
                <path d="M209.825,305.228C209.772,304.995 209.589,304.816 209.377,304.726C209.178,304.642 208.98,304.642 208.781,304.726C208.542,304.827 208.429,304.995 208.333,305.228C208.108,305.773 207.883,306.319 207.657,306.865C207.548,307.13 207.415,307.396 207.338,307.672C207.258,307.959 207.189,308.251 207.115,308.539C206.949,309.187 207.833,309.556 208.186,308.991C208.345,308.738 208.509,308.487 208.662,308.231C208.809,307.984 208.91,307.704 209.026,307.442C209.267,306.903 209.507,306.363 209.747,305.824C209.836,305.623 209.874,305.443 209.825,305.228Z" style="fill:rgb(94,74,56);fill-rule:nonzero;"/>
                <path d="M255.207,391.641C252.591,391.35 249.913,391.541 247.285,391.582C246.606,391.593 246.605,392.626 247.285,392.637C249.913,392.678 252.591,392.868 255.207,392.578C255.809,392.511 255.81,391.708 255.207,391.641Z" style="fill:rgb(94,74,56);fill-rule:nonzero;"/>
                <path d="M256.502,389.072C255.472,388.919 254.445,388.834 253.402,388.82C252.373,388.805 251.343,388.82 250.314,388.82C249.379,388.82 249.377,390.273 250.314,390.273C251.343,390.273 252.373,390.289 253.402,390.273C254.446,390.256 255.472,390.174 256.502,390.021C256.972,389.951 256.972,389.142 256.502,389.072Z" style="fill:rgb(94,74,56);fill-rule:nonzero;"/>
            </g>
        </g>
    </g>
</svg>
