<?xml version="1.0" encoding="UTF-8" standalone="no"?>
<!DOCTYPE svg PUBLIC "-//W3C//DTD SVG 1.1//EN" "http://www.w3.org/Graphics/SVG/1.1/DTD/svg11.dtd">
<svg width="100%" height="100%" viewBox="0 0 768 1024" version="1.1" xmlns="http://www.w3.org/2000/svg" xmlns:xlink="http://www.w3.org/1999/xlink" xml:space="preserve" xmlns:serif="http://www.serif.com/" style="fill-rule:evenodd;clip-rule:evenodd;stroke-linejoin:round;stroke-miterlimit:2;">
    <g transform="matrix(4.16667,0,0,4.16667,-1908.66,-964.25)">
        <path d="M634.17,281.98C635.21,290.01 624.14,294 618.27,296.54C617.68,295.43 617.75,294.04 617.07,292.99C616.29,291.81 614.7,291.26 614.17,289.95C613.53,288.37 614.79,286.63 614.68,284.93C614.57,283.35 613.33,282.09 612.84,280.59C612.42,279.31 612.59,277.91 613.09,276.65C616.15,275.8 619.31,275.28 622.48,275.12C626.67,274.9 633.49,276.69 634.17,281.98Z" style="fill:rgb(238,234,230);fill-rule:nonzero;"/>
        <path d="M605.72,332.8C610.41,340.53 636.03,370.5 632.14,395.05C627.73,422.91 602.32,442.36 600.29,440.75C599.32,439.99 594.57,437.78 594.12,436.63C592.12,431.4 591.5,425.65 592.6,422.17C599.25,418.06 604.19,411.57 607.49,404.49C610.31,398.46 612.05,391.81 611.56,385.17C611.13,379.45 609.08,373.98 606.57,368.83C602.06,359.61 596.03,351.22 591.12,342.21C586.21,333.2 582.36,323.22 582.82,312.97C583.26,302.96 587.95,293.27 595.29,286.44C600.3,281.77 606.48,278.45 613.09,276.65C612.59,277.91 612.42,279.31 612.84,280.59C613.33,282.09 614.57,283.35 614.68,284.93C614.79,286.63 613.53,288.37 614.17,289.95C614.7,291.26 616.29,291.81 617.07,292.99C617.75,294.04 617.68,295.43 618.27,296.54C617.46,296.89 616.75,297.21 616.18,297.51C611.51,300 606.7,302.73 603.8,307.15C598.85,314.72 601.04,325.06 605.72,332.8Z" style="fill:rgb(14,12,12);fill-rule:nonzero;"/>
        <path d="M536.72,458.31C540.83,461.78 543.28,467.13 543.27,472.49C541.93,472.44 540.6,472.42 539.28,472.54C537.19,472.72 535.14,473.24 533.05,473.31C530.96,473.37 528.73,472.93 527.22,471.49C525.9,470.23 525.29,468.34 525.36,466.52C525.43,464.7 526.12,462.94 527.07,461.39C528.41,459.18 530.29,457.32 532.51,456C534.05,456.39 535.49,457.27 536.72,458.31Z" style="fill:rgb(14,12,12);fill-rule:nonzero;"/>
        <path d="M478.47,456.58C481.78,457.84 484.72,460.05 486.88,462.85C485.83,464.27 484.64,465.56 483.24,466.66C479.03,469.96 472.49,470.87 468.49,467.32C467.5,466.43 466.7,465.29 466.39,463.99C465.69,461.07 467.55,458.25 468.8,455.49C472.05,455.03 475.41,455.4 478.47,456.58Z" style="fill:rgb(238,234,230);fill-rule:nonzero;"/>
        <path d="M537.19,415.85C535.73,420.12 534.87,424.68 534.77,429.21C534.61,432.7 534.76,436.24 535.7,439.62C536.75,443.09 538.1,446.46 539.65,449.74C540.09,450.64 540.51,451.56 541.06,452.39C539.15,452.79 537.27,453.46 535.47,454.19C534.97,454.43 534.32,454.72 533.78,455.06C530.3,453 525.7,445.55 526.03,444.07C525.98,444.22 524.27,448.62 522.12,453.55C527.13,441.03 530.51,427.8 535.05,415.09L537.19,415.85Z" style="fill:rgb(238,234,230);fill-rule:nonzero;"/>
        <path d="M535.05,415.09C530.51,427.8 527.13,441.03 522.12,453.55C520.56,457.16 518.76,461.05 517.219,463.79C516.659,464.78 516.14,465.83 515.599,466.85C513.34,464.26 510.31,462.34 506.98,461.46C503.86,460.63 500.5,460.71 497.42,461.66C498.09,460.34 498.34,458.85 498.53,457.38C499.25,451.82 499.14,446.2 499.22,440.6C499.47,439.27 499.5,437.91 499.32,436.57C499.39,434.53 499.52,432.49 499.76,430.45C499.42,431.64 499.07,432.83 498.71,434.02C498.45,433.27 498.12,432.56 497.72,431.88C495.4,427.98 491.09,425.51 489.05,421.45C486.74,416.87 487.84,411.41 487.87,406.28C487.91,399.91 486.11,393.47 482.37,388.3C480.55,385.77 478.26,383.52 476.39,381.04C478.29,373.49 480.55,366.02 481.91,358.36C483.53,349.23 483.81,339.6 480.68,330.86C478.95,326.7 476.04,322.74 473.36,318.61C474.91,318.75 476.48,318.71 478.03,318.58C491.6,317.4 504.25,308.58 510.06,296.26C511.04,294.19 511.85,292 513.3,290.22C514.74,288.44 517.02,287.11 519.27,287.54C521.13,287.9 522.61,289.38 523.539,291.03C524.47,292.69 524.97,294.54 525.66,296.31C529.17,305.21 537.44,311.26 545.73,316.05C548.98,317.93 552.36,319.71 556.05,320.42C557.88,320.77 559.81,320.82 561.64,320.5L561.48,320.68C560.47,321.83 559.42,323.02 559,324.49C558.41,332.99 560.92,341.49 564.56,349.25C566.38,353.13 568.48,356.85 570.66,360.54C570.18,363.01 569.27,365.42 568.1,367.65C565.93,371.82 562.92,375.5 560.51,379.54C558.21,383.39 556.44,387.78 556.77,392.23C556.31,392.52 555.85,392.83 555.4,393.13C553.47,394.38 551.66,395.78 549.95,397.31C545.82,401 542.33,405.43 539.55,410.22C538.65,412.02 537.86,413.9 537.19,415.85L535.05,415.09Z" style="fill:rgb(238,234,230);fill-rule:nonzero;"/>
        <path d="M506.98,461.46C510.31,462.34 513.34,464.26 515.599,466.85C514.289,469.36 512.87,471.78 510.49,473.23C508.27,474.59 505.6,475.02 502.99,475.1C500.69,475.17 498.24,474.95 496.39,473.58C494.13,471.89 493.29,468.54 494.51,465.99C495.22,464.49 496.51,463.34 497.31,461.88L497.42,461.66C500.5,460.71 503.86,460.63 506.98,461.46Z" style="fill:rgb(14,12,12);fill-rule:nonzero;"/>
        <path d="M533.54,455.84C535.94,454.26 538.72,453.75 541.53,452.91C541.72,452.78 541.7,452.51 541.54,452.38L541.47,452.23C540.96,451.37 540.53,450.42 540.15,449.53C538.63,445.88 537.31,442.13 536.44,438.27C535.81,435.4 535.71,432.36 535.86,429.18C536,423.98 537.06,419.06 539.15,414.11C539.8,412.43 541.5,409.62 542.85,407.78C545.01,404.61 547.18,401.86 549.91,399.02C549.93,406.99 552.35,415.15 558.37,420.2C561.29,422.65 564.98,424.34 566.98,427.57C568.62,430.23 568.86,433.56 570.51,436.21C572.21,438.95 575.17,440.6 578.07,441.99C582.21,443.96 586.55,445.62 591.1,446.21C593.69,446.55 596.36,446.53 598.92,446.03C598.73,446.57 598.53,447.11 598.32,447.64C594.8,456.4 587.55,463.4 579.05,467.52C570.55,471.64 560.89,473.01 551.47,472.45C548.72,472.84 545.98,472.59 543.27,472.49C543.28,467.13 540.83,461.78 536.72,458.31C535.49,457.27 534.05,456.39 532.51,456C532.72,455.87 532.93,455.75 533.15,455.64C533.17,455.82 533.38,455.94 533.54,455.84Z" style="fill:rgb(238,234,230);fill-rule:nonzero;"/>
        <path d="M497.72,431.88C498.12,432.56 498.45,433.27 498.71,434.02C496.74,440.58 494.46,447.04 491.85,453.36C490.5,456.66 488.99,460.01 486.88,462.85C484.72,460.05 481.78,457.84 478.47,456.58C475.41,455.4 472.05,455.03 468.8,455.49L468.91,455.25C471.2,450.05 471.07,444.15 470.99,438.47C470.74,420.69 471.43,402.77 475.34,385.42C475.67,383.96 476.02,382.5 476.39,381.04C478.26,383.52 480.55,385.77 482.37,388.3C486.11,393.47 487.91,399.91 487.87,406.28C487.84,411.41 486.74,416.87 489.05,421.45C491.09,425.51 495.4,427.98 497.72,431.88Z" style="fill:rgb(14,12,12);fill-rule:nonzero;"/>
        <path d="M599.83,422.59C601.42,430.34 601.49,438.56 598.92,446.03C596.36,446.53 593.69,446.55 591.1,446.21C586.55,445.62 582.21,443.96 578.07,441.99C575.17,440.6 572.21,438.95 570.51,436.21C568.86,433.56 568.62,430.23 566.98,427.57C564.98,424.34 561.29,422.65 558.37,420.2C552.35,415.15 549.93,406.99 549.91,399.02C550.22,398.69 550.55,398.35 550.88,398.02C554.17,394.84 557.55,392.37 561.53,390.12C562.43,389.66 563.18,389.36 564.13,389.01C564.25,388.98 564.33,388.84 564.29,388.72C564.26,388.6 564.13,388.52 564.01,388.56C561.4,389.37 559.05,390.74 556.77,392.23C556.44,387.78 558.21,383.39 560.51,379.54C562.92,375.5 565.93,371.82 568.1,367.65C569.27,365.42 570.18,363.01 570.66,360.54C572.85,364.23 575.12,367.87 577.29,371.57C582.42,380.35 586.95,389.46 591.19,398.69C594.74,406.4 598.12,414.27 599.83,422.59Z" style="fill:rgb(14,12,12);fill-rule:nonzero;"/>
        <path d="M568.51,306.99C568.57,308.51 568.58,310.07 568.09,311.52C567.65,312.83 566.83,313.98 566,315.09C564.61,316.95 563.15,318.75 561.64,320.5C559.81,320.82 557.88,320.77 556.05,320.42C552.36,319.71 548.98,317.93 545.73,316.05C537.44,311.26 529.17,305.21 525.66,296.31C524.97,294.54 524.47,292.69 523.539,291.03C522.61,289.38 521.13,287.9 519.27,287.54C517.02,287.11 514.74,288.44 513.3,290.22C511.85,292 511.04,294.19 510.06,296.26C504.25,308.58 491.6,317.4 478.03,318.58C476.48,318.71 474.91,318.75 473.36,318.61C470.29,313.87 467.53,308.92 467.23,303.2C466.97,298.3 468.62,293.52 470.48,288.98C473.26,282.16 476.55,275.55 480.32,269.23C482.49,262.78 484.69,256.58 487.29,250.55C490.04,244.15 493.49,237.66 499.33,233.88C499.8,233.58 500.3,233.28 500.85,233.23C502.54,233.06 503.6,234.94 504.21,236.52C506.67,242.96 509.13,249.4 511.59,255.83C518.93,255.64 528.51,257.11 535.66,259.5C541.18,250.78 551.81,240.93 554.44,241.18C561.06,241.83 563.41,267.09 561.34,279.8C564.45,289.69 568.14,297.32 568.51,306.99Z" style="fill:rgb(14,12,12);fill-rule:nonzero;"/>
        <path d="M564.01,388.56C561.4,389.37 559.05,390.74 556.77,392.23C556.31,392.52 555.85,392.83 555.4,393.13C553.47,394.38 551.66,395.78 549.95,397.31C545.82,401 542.33,405.43 539.55,410.22C538.65,412.02 537.86,413.9 537.19,415.85C535.73,420.12 534.87,424.68 534.77,429.21C534.61,432.7 534.76,436.24 535.7,439.62C536.75,443.09 538.1,446.46 539.65,449.74C540.09,450.64 540.51,451.56 541.06,452.39C539.15,452.79 537.27,453.46 535.47,454.19C534.97,454.43 534.32,454.72 533.78,455.06L534.01,455.2C533.72,455.33 533.43,455.48 533.15,455.64C533.17,455.82 533.38,455.94 533.54,455.84C535.94,454.26 538.72,453.75 541.53,452.91C541.72,452.78 541.7,452.51 541.54,452.38L541.47,452.23C540.96,451.37 540.53,450.42 540.15,449.53C538.63,445.88 537.31,442.13 536.44,438.27C535.81,435.4 535.71,432.36 535.86,429.18C536,423.98 537.06,419.06 539.15,414.11C539.8,412.43 541.5,409.62 542.85,407.78C545.01,404.61 547.18,401.86 549.91,399.02C550.22,398.69 550.55,398.35 550.88,398.02C554.17,394.84 557.55,392.37 561.53,390.12C562.43,389.66 563.18,389.36 564.13,389.01C564.25,388.98 564.33,388.84 564.29,388.72C564.26,388.6 564.13,388.52 564.01,388.56Z" style="fill:rgb(217,214,213);fill-rule:nonzero;"/>
        <path d="M533.78,455.06L534.01,455.2C533.72,455.33 533.43,455.48 533.15,455.64L533.16,455.55C533.33,455.38 533.54,455.21 533.78,455.06Z" style="fill:rgb(3,4,4);fill-rule:nonzero;"/>
        <path d="M544.351,394.996C532.386,417.303 529.384,443.272 517.065,465.428C516.969,465.6 516.752,465.662 516.578,465.566C516.411,465.473 516.349,465.262 516.434,465.092C524.918,448.131 528.776,429.416 535.559,411.774C537.836,405.868 540.492,400.09 543.729,394.644C543.829,394.474 544.048,394.417 544.218,394.518C544.384,394.616 544.441,394.828 544.351,394.996Z" style="fill:rgb(217,214,213);fill-rule:nonzero;"/>
        <path d="M472.975,462.166C471.578,464.088 470.914,466.095 470.943,468.473C470.957,468.845 470.415,468.977 470.253,468.648C469.608,467.456 469.588,465.976 469.999,464.681C470.415,463.388 471.298,462.195 472.524,461.611C472.86,461.438 473.21,461.879 472.975,462.166Z" style="fill:rgb(217,214,213);fill-rule:nonzero;"/>
        <path d="M476.843,462.834C475.881,464.808 475.242,467.227 475.468,469.314C475.681,469.649 475.492,470.063 475.077,469.913C474.572,469.664 474.462,469.165 474.348,468.873C473.643,466.602 474.386,463.827 476.295,462.374C476.592,462.138 477.023,462.507 476.843,462.834Z" style="fill:rgb(217,214,213);fill-rule:nonzero;"/>
        <path d="M500.894,467.205C499.652,469.381 498.56,471.993 499.339,474.435C499.513,474.772 499.059,475.117 498.78,474.87C497.526,473.727 497.61,471.917 497.912,470.416C498.268,468.932 499.128,467.541 500.383,466.704C500.698,466.481 501.109,466.891 500.894,467.205Z" style="fill:rgb(217,214,213);fill-rule:nonzero;"/>
        <path d="M506.215,467.908C505.581,469.708 505.239,471.548 505.614,473.356C505.766,473.915 505.976,474.416 506.455,474.713C506.774,474.906 506.579,475.431 506.217,475.377C504.448,475.095 503.932,473.02 503.969,471.547C504.006,470.052 504.56,468.543 505.618,467.514C505.885,467.238 506.363,467.56 506.215,467.908Z" style="fill:rgb(217,214,213);fill-rule:nonzero;"/>
        <path d="M529.744,466.6C528.71,467.764 528.386,469.188 527.962,470.66C527.818,471.174 527.669,471.556 527.765,471.881C527.934,472.217 527.565,472.583 527.244,472.371C526.629,471.926 526.603,471.056 526.662,470.423C526.751,469.253 527.051,468.011 527.83,467.059C528.136,466.651 529.487,465.461 529.841,466.232C529.881,466.368 529.837,466.505 529.744,466.6Z" style="fill:rgb(217,214,213);fill-rule:nonzero;"/>
        <path d="M534.21,467.793C532.978,469.722 532.496,471.697 532.756,473.974C532.807,474.341 532.288,474.53 532.089,474.225C531.325,473.142 531.167,471.693 531.466,470.401C531.769,469.11 532.56,467.88 533.734,467.259C534.06,467.073 534.429,467.495 534.21,467.793Z" style="fill:rgb(217,214,213);fill-rule:nonzero;"/>
        <path d="M497.899,291.502C497.899,289.868 499.086,288.543 500.55,288.543C502.015,288.543 503.202,289.868 503.202,291.502C503.202,293.137 502.015,294.462 500.55,294.462C499.086,294.462 497.899,293.137 497.899,291.502Z" style="fill:rgb(151,216,228);fill-rule:nonzero;"/>
        <path d="M532.18,293.599C532.18,291.964 533.367,290.639 534.831,290.639C536.295,290.639 537.482,291.964 537.482,293.599C537.482,295.233 536.295,296.558 534.831,296.558C533.367,296.558 532.18,295.233 532.18,293.599Z" style="fill:rgb(148,217,230);fill-rule:nonzero;"/>
        <path d="M509.167,303.935C509.022,304.079 509.839,304.053 509.77,303.744L509.774,303.647L509.776,303.619C510.736,305.304 513.107,307.059 514.961,305.709C515.741,305.073 516.323,303.985 516.674,302.916C517.018,301.812 517.103,300.587 517.19,299.337C517.202,298.923 517.841,298.889 517.904,299.295C518.956,303.139 516.489,309.686 511.566,307.045C510.32,306.316 509.404,305.126 509.062,303.742L509.058,303.702C509.061,303.669 509.052,303.746 509.064,303.624C508.997,303.313 509.816,303.287 509.673,303.43C510.007,303.753 509.49,304.268 509.167,303.935Z" style="fill:rgb(48,30,16);fill-rule:nonzero;"/>
        <path d="M518.015,299.927C518.075,301.319 518.245,302.837 518.627,304.173C520.279,307.451 523.597,306.241 525.6,303.891C525.871,303.567 526.401,303.951 526.181,304.308C524.536,307.633 520.226,309.123 517.78,305.634C516.745,303.903 516.966,301.761 517.304,299.846C517.393,299.44 518.018,299.515 518.015,299.927Z" style="fill:rgb(48,30,16);fill-rule:nonzero;"/>
        <path d="M487.237,265.97C487.364,263.777 487.677,263.329 488.405,261.257C488.773,260.211 489.25,259.143 490.133,258.472C490.357,258.301 490.651,258.155 490.911,258.263C491.169,258.371 491.272,258.675 491.341,258.947C491.702,260.371 491.915,261.835 491.973,263.304C492.093,261.869 492.481,260.455 493.11,259.158C493.257,258.856 493.545,258.509 493.856,258.636C494.047,258.715 494.126,258.94 494.175,259.141C494.378,259.96 494.463,260.809 494.426,261.654C494.642,260.358 495.176,259.119 495.97,258.073C496.166,257.814 496.505,257.543 496.778,257.719C496.902,257.8 496.959,257.951 497.002,258.093C497.2,258.748 497.249,259.447 497.145,260.123C499.077,259.007 501.106,258.059 503.202,257.293C502.166,252.834 501.128,248.367 500.525,243.83C500.358,242.57 500.221,241.293 499.797,240.095C499.683,239.773 499.534,239.44 499.249,239.254C498.731,238.915 498.041,239.206 497.519,239.539C494.658,241.361 486.974,249.674 487.237,265.97Z" style="fill:rgb(248,177,179);fill-rule:nonzero;"/>
        <path d="M555.57,272.883C555.413,270.909 555.314,268.007 553.481,267.592C552.492,267.367 551.744,269.193 551.037,270.483C551.57,269.143 552.102,266.44 550.815,266.081C550.285,265.934 548.563,267.756 548.221,268.528C548.604,267.273 548.678,265.924 548.434,264.635C548.373,264.316 548.19,263.922 547.868,263.959C547.72,263.975 547.602,264.084 547.501,264.192C547.032,264.691 546.676,265.295 546.468,265.947C545.235,264.087 543.209,262.975 541.32,261.578C544.13,257.416 552.103,247.718 553.016,246.834C553.261,246.597 553.543,246.366 553.882,246.326C554.497,246.253 554.984,246.821 555.304,247.352C557.053,250.258 559.613,260.495 555.57,272.883Z" style="fill:rgb(248,177,179);fill-rule:nonzero;"/>
        <path d="M491.864,376.907C492.654,383.718 493.928,390.51 496.184,396.985C497.312,400.2 498.739,403.358 499.76,406.729C500.799,410.112 501.144,413.675 501.158,417.156C500.961,426.765 500.183,438.575 499.705,448.213L499.065,458.547C499.052,458.744 498.883,458.894 498.686,458.882C498.493,458.87 498.346,458.707 498.35,458.516L498.613,448.165C498.771,442.998 499.141,432.635 499.349,427.473C499.542,420.68 500.339,413.711 498.387,407.134C497.446,403.881 495.998,400.737 494.93,397.41C492.751,390.799 491.665,383.891 491.152,376.975C491.137,376.778 491.284,376.606 491.481,376.591C491.673,376.576 491.842,376.717 491.864,376.907Z" style="fill:rgb(14,12,12);fill-rule:nonzero;"/>
        <path d="M517.748,300.188C519.161,300.028 520.455,298.378 520.734,297.756C520.844,297.509 520.922,297.238 520.887,296.969C520.823,296.484 520.229,295.665 518.937,296.365C518.336,296.69 517.904,296.778 517.354,296.787C516.969,296.793 516.606,296.619 516.241,296.491C515.875,296.363 515.309,296.033 514.722,296.419C514.474,296.582 514.323,296.977 514.323,297.272C514.323,298.49 515.275,299.083 515.781,299.407C516.278,299.723 517.172,300.253 517.748,300.188Z" style="fill:rgb(248,177,179);fill-rule:nonzero;"/>
        <path d="M578.65,312.588C575.725,310.57 572.169,309.44 568.843,308.265C565.234,306.991 561.583,305.835 557.888,304.835C550.706,302.89 543.381,301.514 535.985,300.698C535.775,300.674 535.777,301.002 535.985,301.026C543.345,301.866 550.637,303.262 557.777,305.238C561.241,306.197 564.673,307.279 568.046,308.518C571.571,309.813 575.132,311.141 578.342,313.114C578.681,313.322 578.969,312.808 578.65,312.588Z" style="fill:rgb(255,254,241);fill-rule:nonzero;"/>
        <path d="M579.44,323.35C575.825,321.178 572.01,319.322 568.277,317.361C564.627,315.443 560.982,313.514 557.323,311.613C550.458,308.046 543.428,304.715 536.007,302.471C535.703,302.38 535.574,302.853 535.876,302.946C543.402,305.259 550.46,308.735 557.451,312.312C561.059,314.158 564.656,316.027 568.258,317.886C571.936,319.785 575.576,321.805 579.357,323.492C579.451,323.534 579.532,323.406 579.44,323.35Z" style="fill:rgb(255,254,241);fill-rule:nonzero;"/>
        <path d="M494.14,339.966C493.839,340.779 493.538,341.592 493.236,342.406C492.936,343.217 492.608,344.023 492.365,344.854C492.226,345.329 492.912,345.489 493.088,345.054C493.412,344.252 493.655,343.417 493.923,342.595C494.191,341.773 494.459,340.95 494.727,340.128C494.85,339.751 494.274,339.603 494.14,339.966Z" style="fill:white;fill-rule:nonzero;"/>
        <path d="M496.115,343.656C495.722,344.544 495.329,345.432 494.936,346.319C494.739,346.763 494.542,347.207 494.346,347.651C494.134,348.129 493.93,348.609 493.869,349.131C493.841,349.367 494.06,349.603 494.273,349.662C494.526,349.731 494.748,349.607 494.895,349.409C495.189,349.012 495.353,348.494 495.515,348.031C495.671,347.588 495.826,347.146 495.981,346.703C496.297,345.802 496.613,344.901 496.929,344C497.094,343.53 496.321,343.193 496.115,343.656Z" style="fill:white;fill-rule:nonzero;"/>
        <path d="M497.464,347.85C497.165,347.692 496.772,347.769 496.598,348.077C496.235,348.723 495.972,349.433 495.851,350.165C495.788,350.55 495.739,350.944 495.756,351.335C495.765,351.549 495.782,351.759 495.853,351.963C495.919,352.15 495.996,352.333 496.076,352.515C496.164,352.716 496.448,352.801 496.645,352.747C496.868,352.685 497,352.483 497.015,352.261L497.037,351.998L497.039,351.963L497.053,351.87C497.084,351.665 497.08,351.474 497.083,351.268C497.086,351.113 497.088,350.958 497.098,350.803L497.113,350.604L497.127,350.472L497.13,350.449C497.178,350.142 497.247,349.839 497.341,349.542C497.387,349.398 497.438,349.256 497.496,349.117L497.515,349.074L497.571,348.954L497.691,348.716C497.846,348.424 497.775,348.014 497.464,347.85Z" style="fill:white;fill-rule:nonzero;"/>
        <path d="M553.518,325.658C553.284,325.658 553.142,325.842 553.12,326.057L552.813,328.997C552.797,329.147 552.78,329.298 552.766,329.449C552.746,329.651 552.796,329.796 552.863,329.985C552.95,330.233 553.298,330.309 553.441,330.061C553.545,329.88 553.626,329.739 553.647,329.524C553.661,329.374 553.67,329.223 553.682,329.072C553.708,328.733 553.735,328.394 553.761,328.054C553.813,327.388 553.865,326.723 553.917,326.057C553.934,325.842 553.722,325.658 553.518,325.658Z" style="fill:white;fill-rule:nonzero;"/>
        <path d="M550.327,328.148C550.319,327.681 549.608,327.68 549.6,328.148C549.576,329.662 549.518,331.179 549.577,332.692C549.596,333.189 550.331,333.19 550.35,332.692C550.409,331.179 550.351,329.662 550.327,328.148Z" style="fill:white;fill-rule:nonzero;"/>
        <path d="M477.428,444.168C477.378,443.275 477.253,442.384 477.06,441.511C476.969,441.098 476.466,440.817 476.065,440.947C475.629,441.088 475.406,441.497 475.501,441.941C475.677,442.762 475.762,443.413 475.799,444.261C475.816,444.664 475.795,445.068 475.813,445.47C475.834,445.918 475.913,446.342 475.985,446.783C476.025,447.028 476.306,447.205 476.538,447.205C476.81,447.205 476.997,447.021 477.092,446.783C477.171,446.585 477.256,446.385 477.32,446.181C477.394,445.943 477.417,445.672 477.439,445.424C477.476,445.01 477.451,444.582 477.428,444.168Z" style="fill:white;fill-rule:nonzero;"/>
        <path d="M479.834,444.141C479.796,443.832 479.757,443.523 479.719,443.215C479.643,442.609 479.568,442.003 479.493,441.397C479.457,441.113 479.265,440.832 478.942,440.847C478.659,440.859 478.372,441.089 478.391,441.397L478.505,443.249C478.523,443.546 478.542,443.843 478.56,444.141C478.57,444.3 478.579,444.461 478.59,444.62C478.596,444.72 478.598,444.839 478.623,444.932C478.665,445.083 478.759,445.19 478.869,445.293C479.156,445.559 479.535,445.475 479.753,445.179C479.985,444.863 479.879,444.5 479.834,444.141Z" style="fill:white;fill-rule:nonzero;"/>
        <path d="M477.837,437.947C477.726,437.291 477.614,436.635 477.503,435.979C477.442,435.622 476.983,435.389 476.652,435.496C476.277,435.618 476.09,435.967 476.169,436.347C476.44,437.649 476.624,439.015 477.145,440.245C477.227,440.438 477.503,440.517 477.688,440.466C477.896,440.409 478.034,440.215 478.041,440.003C478.061,439.317 477.952,438.621 477.837,437.947Z" style="fill:white;fill-rule:nonzero;"/>
        <path d="M547.622,387.787C547.542,387.244 546.593,387.366 546.655,387.918C546.762,388.871 546.708,389.828 546.472,390.758C546.234,391.693 545.788,392.554 545.429,393.444C545.26,393.862 545.869,394.152 546.153,393.866C546.921,393.092 547.307,392.052 547.53,391C547.756,389.937 547.78,388.861 547.622,387.787Z" style="fill:white;fill-rule:nonzero;"/>
        <path d="M551.248,386.518C551.208,386.198 551.002,385.921 550.65,385.921C550.336,385.921 550.04,386.194 550.052,386.518C550.088,387.453 550.047,388.394 549.895,389.318C549.817,389.785 549.699,390.241 549.604,390.703C549.554,390.944 549.503,391.185 549.451,391.425C549.386,391.727 549.406,391.985 549.467,392.287C549.557,392.733 550.147,392.833 550.446,392.545C550.671,392.328 550.809,392.128 550.91,391.827C550.987,391.596 551.055,391.357 551.111,391.119C551.234,390.598 551.283,390.045 551.324,389.511C551.402,388.513 551.372,387.511 551.248,386.518Z" style="fill:white;fill-rule:nonzero;"/>
        <path d="M595.345,308.055C595.13,307.942 594.931,307.81 594.723,307.686C594.523,307.566 594.306,307.472 594.105,307.351C593.895,307.224 593.684,307.098 593.482,306.957L593.352,306.864L593.303,306.827C593.21,306.753 593.118,306.678 593.029,306.599C592.852,306.444 592.684,306.279 592.524,306.106C592.444,306.02 592.367,305.932 592.292,305.841L592.217,305.749L592.152,305.665C591.862,305.267 591.618,304.839 591.422,304.388C591.265,304.027 590.708,303.917 590.395,304.119C590.021,304.36 589.958,304.759 590.126,305.145C590.55,306.12 591.213,307.007 592.017,307.702C592.432,308.061 592.888,308.408 593.383,308.649C593.635,308.772 593.905,308.912 594.177,308.981C594.462,309.053 594.769,309.079 595.061,309.103C595.62,309.15 595.824,308.306 595.345,308.055Z" style="fill:white;fill-rule:nonzero;"/>
        <path d="M594.886,311.709C594.749,311.667 594.613,311.622 594.479,311.57C594.447,311.558 594.252,311.476 594.404,311.54C594.306,311.499 594.21,311.457 594.109,311.425C593.852,311.342 593.599,311.25 593.348,311.152L593.297,311.13L593.102,311.037C592.984,310.978 592.867,310.916 592.753,310.849C592.628,310.777 592.506,310.7 592.387,310.619L592.24,310.515L592.171,310.465C591.966,310.3 591.77,310.124 591.587,309.935C591.495,309.84 591.407,309.742 591.321,309.642L591.215,309.513L591.135,309.406C590.982,309.191 590.842,308.966 590.72,308.733C590.658,308.616 590.601,308.496 590.548,308.374L590.505,308.263L590.434,308.058C590.302,307.662 589.9,307.403 589.482,307.518C589.088,307.626 588.818,308.069 588.942,308.469C589.322,309.697 590.062,310.819 591.057,311.636C591.558,312.048 592.095,312.404 592.692,312.661C593.354,312.946 593.986,313.079 594.708,313.021C595.039,312.994 595.323,312.787 595.364,312.441C595.404,312.109 595.211,311.807 594.886,311.709Z" style="fill:white;fill-rule:nonzero;"/>
        <path d="M610.234,345.035C609.93,344.756 609.44,344.723 609.14,345.035C608.792,345.396 608.445,345.757 608.097,346.118C607.925,346.296 607.754,346.474 607.583,346.652C607.504,346.734 607.419,346.815 607.367,346.917L607.298,347.067C607.243,347.186 607.188,347.305 607.134,347.424C607.032,347.645 607.027,347.926 607.222,348.105C607.416,348.283 607.67,348.308 607.904,348.193C608.014,348.139 608.124,348.085 608.234,348.031C608.388,347.955 608.524,347.87 608.646,347.745L609.18,347.201C609.531,346.844 609.883,346.486 610.234,346.129C610.518,345.84 610.544,345.319 610.234,345.035Z" style="fill:white;fill-rule:nonzero;"/>
        <path d="M610.466,347.542C610.313,347.86 610.146,348.173 609.925,348.447C609.689,348.741 609.429,349.015 609.152,349.27C609.014,349.396 608.869,349.513 608.73,349.638L608.518,349.822L608.409,349.911L608.323,349.977L608.298,349.995L608.186,350.076C608.069,350.158 607.953,350.242 607.843,350.333C607.658,350.488 607.53,350.678 607.389,350.871C607.228,351.092 607.289,351.44 607.443,351.639C607.611,351.857 607.899,351.96 608.169,351.887C608.415,351.82 608.638,351.736 608.843,351.583C609.035,351.44 609.198,351.276 609.359,351.099C609.657,350.772 609.928,350.423 610.15,350.04C610.551,349.345 610.853,348.571 611.087,347.804C611.197,347.442 610.635,347.19 610.466,347.542Z" style="fill:white;fill-rule:nonzero;"/>
        <path d="M614.276,349.965C613.937,349.786 613.592,349.901 613.378,350.2C613.086,350.608 612.794,351.015 612.502,351.423C612.361,351.62 612.219,351.818 612.078,352.015C611.925,352.228 611.803,352.447 611.68,352.678C611.533,352.953 611.591,353.286 611.84,353.479C612.073,353.659 612.447,353.661 612.656,353.431C612.857,353.208 613.049,352.986 613.219,352.738C613.362,352.532 613.503,352.326 613.646,352.12C613.934,351.701 614.223,351.281 614.511,350.862C614.707,350.579 614.573,350.122 614.276,349.965Z" style="fill:white;fill-rule:nonzero;"/>
        <path d="M613.799,428.706L613.656,428.448L613.399,428.256C613.258,428.151 613.114,428.042 612.968,427.935C612.695,427.736 612.433,427.521 612.177,427.294C611.642,426.818 611.151,426.295 610.708,425.733C610.587,425.579 610.325,425.591 610.185,425.702C610.045,425.813 609.961,426.055 610.083,426.216C610.541,426.822 611.044,427.391 611.603,427.906C611.887,428.167 612.184,428.412 612.49,428.647C612.632,428.757 612.777,428.859 612.929,428.954C613.019,429.009 613.109,429.076 613.208,429.113C613.318,429.155 613.43,429.15 613.546,429.147C613.785,429.142 613.89,428.906 613.799,428.706Z" style="fill:white;fill-rule:nonzero;"/>
        <path d="M617.576,423.777C615.564,422.053 613.566,420.342 611.777,418.379C611.475,418.047 610.908,418.072 610.601,418.379C610.267,418.713 610.301,419.22 610.601,419.556C612.4,421.573 614.372,423.504 616.611,425.028C617.352,425.533 618.266,424.367 617.576,423.777Z" style="fill:white;fill-rule:nonzero;"/>
        <path d="M621.262,419.844C621.113,419.76 620.971,419.665 620.824,419.578C620.622,419.459 620.374,419.4 620.156,419.314L620.044,419.269L619.818,419.164C619.649,419.083 619.483,418.996 619.321,418.904C619.168,418.816 619.017,418.724 618.87,418.626L618.474,418.339L618.447,418.324L618.438,418.32L618.444,418.323L618.439,418.319L618.343,418.24L618.131,418.057C617.991,417.932 617.857,417.802 617.726,417.669C617.413,417.348 616.826,417.331 616.516,417.669C616.2,418.014 616.182,418.536 616.516,418.878C617.087,419.463 617.747,419.976 618.457,420.381C618.829,420.593 619.218,420.769 619.614,420.93C619.822,421.014 620.033,421.103 620.255,421.133C620.471,421.162 620.69,421.159 620.907,421.154C621.591,421.139 621.883,420.195 621.262,419.844Z" style="fill:white;fill-rule:nonzero;"/>
        <path d="M618.474,418.339L618.444,418.323L618.447,418.324L618.474,418.339Z" style="fill:white;fill-rule:nonzero;"/>
        <path d="M624.233,415.254L624.155,415.223C624.061,415.179 623.965,415.134 623.868,415.097L623.662,415.024L623.58,414.993L623.573,414.99L623.513,414.964L623.434,414.927L623.258,414.839C623.136,414.774 623.016,414.704 622.899,414.629C622.801,414.566 622.706,414.484 622.606,414.423L622.623,414.438L622.604,414.422L622.577,414.403L622.604,414.422L622.539,414.368L622.391,414.239C622.288,414.146 622.19,414.048 622.096,413.946L621.966,413.798C621.926,413.752 621.778,413.561 621.919,413.745C621.793,413.581 621.669,413.465 621.47,413.401C621.244,413.328 620.998,413.395 620.817,413.535C620.654,413.661 620.562,413.821 620.534,414.024C620.5,414.278 620.587,414.459 620.741,414.654C621.131,415.149 621.621,415.569 622.156,415.901C622.44,416.077 622.741,416.216 623.05,416.343C623.183,416.397 623.322,416.455 623.462,416.49C623.653,416.538 623.859,416.551 624.056,416.566C624.386,416.593 624.671,416.292 624.712,415.987C624.759,415.638 624.548,415.376 624.233,415.254Z" style="fill:white;fill-rule:nonzero;"/>
        <path d="M622.606,414.423L622.604,414.422L622.606,414.423Z" style="fill:white;fill-rule:nonzero;"/>
        <path d="M593.417,424.584C593.114,423.454 592.754,422.34 592.344,421.245C592.204,420.872 591.844,420.617 591.435,420.729C591.071,420.829 590.787,421.259 590.92,421.637C591.3,422.721 591.631,423.821 591.907,424.935C592.183,426.051 592.331,427.195 592.743,428.27C592.994,428.924 593.948,428.845 593.986,428.101C594.048,426.904 593.725,425.734 593.417,424.584Z" style="fill:white;fill-rule:nonzero;"/>
        <path d="M590.187,426.004C590.073,425.211 589.89,424.431 589.642,423.669C589.506,423.25 589.052,422.935 588.604,423.08C588.178,423.218 587.878,423.665 588.015,424.118C588.131,424.501 588.232,424.888 588.316,425.28C588.351,425.448 588.384,425.616 588.413,425.786C588.433,425.898 588.45,426.012 588.468,426.125L588.477,426.175L588.483,426.234C588.526,426.604 588.547,426.973 588.573,427.344C588.588,427.544 588.606,427.746 588.626,427.944C588.65,428.186 588.725,428.412 588.786,428.646C588.965,429.34 589.938,429.288 590.142,428.646C590.278,428.215 590.344,427.798 590.331,427.344C590.319,426.897 590.251,426.445 590.187,426.004Z" style="fill:white;fill-rule:nonzero;"/>
        <path d="M589.958,420.28C589.939,420.055 589.882,419.867 589.814,419.655C589.711,419.33 589.594,419.011 589.48,418.69C589.247,418.035 589.014,417.381 588.782,416.727C588.648,416.353 588.256,416.062 587.845,416.195C587.478,416.314 587.166,416.732 587.313,417.132C587.551,417.785 587.789,418.437 588.027,419.09C588.144,419.411 588.258,419.732 588.386,420.049C588.465,420.246 588.531,420.458 588.646,420.635C588.741,420.781 588.848,420.92 588.948,421.062C589.094,421.268 589.328,421.391 589.583,421.321C589.809,421.259 590.015,421.022 589.996,420.779C589.984,420.612 589.973,420.446 589.958,420.28Z" style="fill:white;fill-rule:nonzero;"/>
    </g>
</svg>
