<?xml version="1.0" encoding="UTF-8" standalone="no"?>
<!DOCTYPE svg PUBLIC "-//W3C//DTD SVG 1.1//EN" "http://www.w3.org/Graphics/SVG/1.1/DTD/svg11.dtd">
<svg width="100%" height="100%" viewBox="0 0 250 160" version="1.1" xmlns="http://www.w3.org/2000/svg" xmlns:xlink="http://www.w3.org/1999/xlink" xml:space="preserve" xmlns:serif="http://www.serif.com/" style="fill-rule:evenodd;clip-rule:evenodd;stroke-linejoin:round;stroke-miterlimit:2;">
    <g transform="matrix(2.82701,0,0,2.82701,-219.334,-118.389)">
        <g transform="matrix(0.666392,0,0,0.666392,0.492345,70.2627)">
            <path d="M152.283,39.659L120.347,39.659C119.586,39.659 118.973,39.426 118.508,38.961C118.043,38.496 117.81,37.882 117.81,37.121L117.81,-36.873C117.81,-37.634 118.043,-38.247 118.508,-38.712C118.973,-39.178 119.586,-39.41 120.347,-39.41L152.444,-39.41C153.121,-39.41 153.67,-39.199 154.093,-38.776C156.867,-36.002 172.408,-22.827 178.52,-17.663C179.876,-16.51 181.872,-16.526 183.21,-17.699C189.417,-23.12 206.578,-36.963 208.391,-38.776C208.814,-39.199 209.364,-39.41 210.04,-39.41L242.264,-39.41C242.941,-39.41 243.511,-39.178 243.977,-38.712C244.442,-38.247 244.674,-37.634 244.674,-36.873L244.674,37.121C244.674,37.882 244.442,38.496 243.977,38.961C243.511,39.426 242.941,39.659 242.264,39.659L209.908,39.659L209.959,25.725L216.418,-2.19C216.669,-3.293 216.165,-4.429 215.17,-5.001C214.174,-5.574 212.915,-5.452 212.053,-4.7L191.018,13.645C187.726,12.313 184.277,11.429 180.921,11.429C177.714,11.429 174.422,12.236 171.265,13.469L150.431,-4.7C149.569,-5.452 148.31,-5.574 147.315,-5.001C146.319,-4.429 145.815,-3.293 146.067,-2.19L152.434,25.725C152.374,25.781 152.315,25.909 152.283,39.659Z" style="fill:rgb(255,122,87);"/>
        </g>
        <g transform="matrix(1,0,0,1,-1.6637,4.69083)">
            <path d="M131.926,83.021C131.974,83.007 132.026,83.007 132.074,83.021C132.643,83.184 136.351,84.243 138.096,84.742C138.211,84.775 138.29,84.88 138.29,85C138.29,85.12 138.211,85.225 138.096,85.258C136.351,85.757 132.643,86.816 132.074,86.979C132.026,86.993 131.974,86.993 131.926,86.979C131.357,86.816 127.649,85.757 125.904,85.258C125.789,85.225 125.71,85.12 125.71,85C125.71,84.88 125.789,84.775 125.904,84.742C127.649,84.243 131.357,83.184 131.926,83.021Z" style="fill:rgb(255,122,87);"/>
        </g>
        <g transform="matrix(1,0,0,1,-19,4.69083)">
            <path d="M131.926,83.021C131.974,83.007 132.026,83.007 132.074,83.021C132.643,83.184 136.351,84.243 138.096,84.742C138.211,84.775 138.29,84.88 138.29,85C138.29,85.12 138.211,85.225 138.096,85.258C136.351,85.757 132.643,86.816 132.074,86.979C132.026,86.993 131.974,86.993 131.926,86.979C131.357,86.816 127.649,85.757 125.904,85.258C125.789,85.225 125.71,85.12 125.71,85C125.71,84.88 125.789,84.775 125.904,84.742C127.649,84.243 131.357,83.184 131.926,83.021Z" style="fill:rgb(255,122,87);"/>
        </g>
    </g>
</svg>
